<svg width="81" height="79" viewBox="0 0 81 79" fill="none" xmlns="http://www.w3.org/2000/svg">
<path d="M0 0.0150452V78.985H81V0.0150452H0ZM3.37416 3.3892H77.6233V75.6083H3.37416V3.3892ZM22.9002 44.7346L20.2247 54.8065C20.1715 55.0824 20.0526 55.1887 19.7235 55.1887H14.7673C14.4383 55.1887 14.3851 55.0697 14.4382 54.6875L24.0216 21.1611C24.181 20.5536 24.2975 20.0676 24.3506 18.3919C24.3506 18.1666 24.4569 18.0502 24.6265 18.0502H31.7064C31.9317 18.0502 32.0355 18.116 32.0887 18.3919L42.8338 54.7381C42.887 55.0141 42.8338 55.1735 42.5579 55.1735H36.9942C36.7183 55.1735 36.5462 55.0824 36.493 54.8571L33.7112 44.7195H22.9002V44.7346ZM32.3646 39.2494C31.4153 35.5184 29.122 27.3323 28.2918 23.3886H28.2386C27.5147 27.3298 25.6947 34.0148 24.2975 39.2494H32.3646ZM50.4529 42.7046C50.5187 47.2786 52.6804 50.3388 57.8087 50.3388C59.8134 50.3388 61.5271 50.0756 63.3066 49.2833C63.5318 49.177 63.7014 49.2428 63.7014 49.5212V53.7535C63.7014 54.0826 63.5951 54.2547 63.3597 54.4268C61.5802 55.3102 59.3654 55.7051 56.5836 55.7051C47.671 55.7051 44.3348 49.139 44.3348 41.7832C44.3348 33.8199 48.4481 27.307 55.7002 27.307C63.0433 27.307 65.5999 33.4908 65.5999 38.5002C65.5999 40.1227 65.4809 41.4541 65.324 42.0718C65.2582 42.3477 65.1518 42.4413 64.8759 42.4945C64.2026 42.6135 62.2004 42.7198 59.2464 42.7198H50.4529V42.7046ZM57.31 38.0623C59.0363 38.0623 59.6438 38.0623 59.816 38.0091C59.816 37.7838 59.8691 37.5864 59.8691 37.4295C59.8691 35.5842 58.9731 32.2075 55.4648 32.2075C52.2349 32.2075 50.8376 35.0551 50.5086 38.0623H57.31Z" fill="#964296"/>
</svg>
