<svg width="70" height="70" viewBox="0 0 70 70" fill="none" xmlns="http://www.w3.org/2000/svg">
<g clip-path="url(#clip0)">
<path d="M0 51.6921L5.91208 61.915H5.915C6.50408 63.0838 7.40604 64.0661 8.52041 64.7525C9.63479 65.439 10.9178 65.8026 12.2267 65.8029H51.4763L43.3329 51.6921H0ZM70 51.765C70 50.3533 69.5829 49.0379 68.8683 47.9325L45.8733 7.95667C45.2718 6.82153 44.3724 5.87174 43.2716 5.20935C42.1709 4.54696 40.9105 4.19701 39.6258 4.19708H27.4721L62.9942 65.7417L68.5942 56.0437C69.6967 54.1858 70 53.3633 70 51.765ZM37.5404 41.6675L21.665 14.1692L5.78667 41.6675H37.5404Z" fill="black"/>
</g>
<defs>
<clipPath id="clip0">
<rect width="70" height="70" fill="white"/>
</clipPath>
</defs>
</svg>
