<svg width="70" height="70" viewBox="0 0 70 70" fill="none" xmlns="http://www.w3.org/2000/svg">
<path d="M28.7314 32.1494C29.3262 31.7188 29.6133 31.0078 29.6133 30.0303C29.6338 29.5654 29.5381 29.1074 29.333 28.6904C29.1484 28.3555 28.875 28.0752 28.54 27.877C28.1927 27.6663 27.807 27.5269 27.4053 27.4668C26.9678 27.3848 26.5234 27.3438 26.0859 27.3506H21.2803V32.7988H26.4824C27.3779 32.8057 28.1367 32.5869 28.7314 32.1494ZM29.5381 37.0713C28.8682 36.5586 27.9727 36.3057 26.8584 36.3057H21.2666V42.7314H26.749C27.2617 42.7314 27.7334 42.6836 28.1914 42.5879C28.6247 42.5032 29.0378 42.3361 29.4082 42.0957C29.7568 41.8701 30.0371 41.5625 30.249 41.166C30.4541 40.7695 30.5566 40.2637 30.5566 39.6553C30.5566 38.4453 30.2148 37.5908 29.5381 37.0713ZM35 4.375C18.0879 4.375 4.375 18.0879 4.375 35C4.375 51.9121 18.0879 65.625 35 65.625C51.9121 65.625 65.625 51.9121 65.625 35C65.625 18.0879 51.9121 4.375 35 4.375ZM40.9131 23.9873H50.374V26.291H40.9131V23.9873ZM35 42.9844C34.5575 43.8244 33.9256 44.5499 33.1543 45.1035C32.3477 45.6641 31.4521 46.0742 30.502 46.3135C29.5078 46.5799 28.4823 46.7109 27.4531 46.7031H16.1328V23.3857H27.1387C28.2529 23.3857 29.2646 23.4883 30.1875 23.6797C31.1035 23.8711 31.8828 24.1992 32.5391 24.6436C33.1885 25.0879 33.7012 25.6826 34.0635 26.4209C34.4189 27.1523 34.6035 28.0684 34.6035 29.1553C34.6035 30.3311 34.3369 31.3018 33.8037 32.0879C33.2637 32.874 32.4844 33.5098 31.4248 34.0088C32.8672 34.4189 33.9268 35.1504 34.624 36.1758C35.335 37.2148 35.6836 38.459 35.6836 39.9219C35.6836 41.1113 35.458 42.1299 35 42.9844ZM54.0586 39.375H41.8633C41.8633 40.7012 42.3213 41.9727 43.0117 42.6562C43.709 43.333 44.707 43.6748 46.0127 43.6748C46.9561 43.6748 47.7559 43.4355 48.4395 42.9639C49.1162 42.4922 49.5264 41.9932 49.6768 41.4736H53.7646C53.1084 43.5039 52.1104 44.9531 50.7568 45.8281C49.417 46.7031 47.7764 47.1406 45.8691 47.1406C44.5361 47.1406 43.3398 46.9219 42.2666 46.5049C41.2344 46.1016 40.3047 45.4863 39.5391 44.6934C38.7842 43.879 38.2007 42.9212 37.8232 41.877C37.4062 40.7217 37.2012 39.5049 37.2148 38.2812C37.2148 37.0166 37.4268 35.8408 37.8369 34.7471C38.623 32.6211 40.2568 30.9189 42.3418 30.0371C43.4561 29.5723 44.6523 29.3398 45.8623 29.3535C47.2979 29.3535 48.542 29.627 49.6221 30.1875C50.6619 30.7228 51.5647 31.4899 52.2607 32.4297C52.9512 33.3662 53.4365 34.4326 53.7441 35.6357C54.0381 36.8184 54.1406 38.0625 54.0586 39.375ZM45.7188 32.8398C44.9805 32.8398 44.3584 32.9697 43.8799 33.2227C43.4014 33.4756 43.0049 33.79 42.7041 34.1523C42.4177 34.5022 42.2059 34.907 42.082 35.3418C41.9727 35.7041 41.8975 36.0732 41.8701 36.4492H49.4238C49.3145 35.2666 48.9043 34.3916 48.3574 33.7764C47.7832 33.168 46.8604 32.8398 45.7188 32.8398Z" fill="black"/>
</svg>
