<svg width="96" height="80" viewBox="0 0 96 80" fill="none" xmlns="http://www.w3.org/2000/svg">
<path d="M37.6611 44.3058C38.0102 37.9188 41.0593 32.2923 45.6598 28.3035C50.1711 24.3858 56.2431 21.9911 62.8686 21.9911C69.4873 21.9911 75.5597 24.3858 80.0743 28.3035C84.6711 32.2919 87.7206 37.9188 88.0731 44.2988C88.4218 50.8612 85.8501 56.9573 81.3388 61.4762C76.7387 66.0727 70.1953 68.9569 62.8686 68.9569C55.5418 68.9569 48.9857 66.0727 44.3886 61.4762C39.8739 56.9569 37.3086 50.8608 37.6611 44.3058Z" fill="white"/>
<path d="M49.9384 44.8754C50.1172 41.5985 51.6821 38.7112 54.0424 36.6646C56.3572 34.6546 59.4727 33.4258 62.8725 33.4258C66.2685 33.4258 69.3844 34.6546 71.7007 36.6646C74.0595 38.7112 75.624 41.5985 75.8047 44.8723C75.984 48.2392 74.6647 51.3673 72.3495 53.6858C69.9892 56.0442 66.6319 57.5242 62.8725 57.5242C59.1131 57.5242 55.749 56.0442 53.3902 53.6858C51.0739 51.3673 49.7576 48.2392 49.9384 44.8754Z" fill="#265787"/>
<path d="M29.4031 51.6077C29.4256 52.8923 29.825 55.39 30.4246 57.34C31.6842 61.4681 33.821 65.2873 36.7944 68.6527C39.8457 72.1123 43.6029 74.8911 47.9431 76.8638C52.5046 78.9357 57.4471 79.9915 62.5809 79.9831C67.7064 79.9757 72.6492 78.8992 77.2107 76.8115C81.5506 74.8196 85.3044 72.0288 88.3509 68.5677C91.3223 65.1881 93.4557 61.3623 94.7191 57.2342C95.354 55.1484 95.7552 53.0315 95.9161 50.9073C96.0735 48.8118 96.0071 46.7049 95.7181 44.6242C95.1526 40.5431 93.7756 36.7138 91.6557 33.2231C89.717 30.0154 87.218 27.2073 84.2461 24.8435L84.2528 24.8384L54.2641 1.22114C54.2367 1.20037 54.2146 1.17807 54.1857 1.15884C52.2185 -0.390394 48.9095 -0.385009 46.7457 1.1673C44.558 2.7373 44.3075 5.33384 46.2545 6.97114L46.2462 6.97999L58.7543 17.4123L20.6307 17.4538H20.5797C17.4286 17.4577 14.3997 19.5781 13.7997 22.2577C13.1836 24.9877 15.3241 27.2523 18.6005 27.2646L18.5952 27.2765L37.919 27.2381L3.43698 54.3846C3.39311 54.4177 3.34548 54.4523 3.30498 54.4854C0.0522327 57.04 -0.999267 61.2881 1.04936 63.9761C3.12873 66.71 7.54998 66.715 10.8365 63.9919L29.6555 48.1954C29.6555 48.1954 29.381 50.3277 29.4031 51.6077ZM77.7612 58.7484C73.8837 62.8004 68.4548 65.0977 62.5812 65.11C56.6986 65.1204 51.2701 62.8434 47.3926 58.7988C45.4977 56.8277 44.1061 54.5596 43.2474 52.1438C42.4033 49.7664 42.0785 47.2279 42.296 44.7077C42.5007 42.2223 43.2222 39.8519 44.3735 37.7069C45.5045 35.5988 47.0622 33.6934 48.986 32.0819C52.7547 28.9319 57.5536 27.2261 62.5722 27.2192C67.5965 27.2123 72.3916 28.9023 76.1645 32.0423C78.0845 33.6465 79.6407 35.545 80.7717 37.65C81.9382 39.8063 82.649 42.1903 82.8578 44.6469C83.072 47.1656 82.746 49.7019 81.9027 52.0777C81.0425 54.5008 79.6557 56.7688 77.7612 58.7484Z" fill="#EA7600"/>
</svg>
