<svg width="68" height="67" viewBox="0 0 68 67" fill="none" xmlns="http://www.w3.org/2000/svg">
<path fill-rule="evenodd" clip-rule="evenodd" d="M34 0C15.2223 0 0 14.9985 0 33.5C0 52.0015 15.2223 67 34 67C52.7777 67 68 52.0015 68 33.5C68 14.9985 52.7777 0 34 0ZM26.5244 15.7413C28.4586 15.6545 29.0767 15.6333 34.0014 15.6333H33.9958C38.922 15.6333 39.5378 15.6545 41.4721 15.7413C43.4025 15.8284 44.721 16.1295 45.877 16.5713C47.0708 17.0273 48.0795 17.6378 49.0881 18.6316C50.0968 19.6247 50.7164 20.6215 51.181 21.7966C51.6268 22.9327 51.9328 24.231 52.0235 26.1331C52.1104 28.0389 52.1331 28.6478 52.1331 33.5002C52.1331 38.3525 52.1104 38.96 52.0235 40.8658C51.9328 42.7671 51.6268 44.0658 51.181 45.2022C50.7164 46.377 50.0968 47.3738 49.0881 48.3669C48.0806 49.3607 47.0704 49.9727 45.8781 50.429C44.7244 50.8709 43.4052 51.172 41.4747 51.2591C39.5405 51.3458 38.9243 51.367 33.9992 51.367C29.0748 51.367 28.4571 51.3458 26.5229 51.2591C24.5928 51.172 23.2747 50.8709 22.1209 50.429C20.929 49.9727 19.9173 49.3607 18.9098 48.3669C17.9015 47.3738 17.2819 46.377 16.8184 45.2019C16.3704 44.0658 16.0647 42.7675 15.9759 40.8654C15.8883 38.9596 15.8664 38.3525 15.8664 33.5002C15.8664 28.6478 15.8891 28.0385 15.9756 26.1327C16.0625 24.2314 16.3685 22.9327 16.818 21.7963C17.2827 20.6215 17.9023 19.6247 18.9109 18.6316C19.9189 17.6381 20.9306 17.0277 22.1232 16.5713C23.2762 16.1295 24.5939 15.8284 26.5244 15.7413Z" fill="black"/>
<path fill-rule="evenodd" clip-rule="evenodd" d="M32.3752 18.8531C32.6911 18.8526 33.0309 18.8528 33.3976 18.8529L34.0019 18.8531C38.8436 18.8531 39.4174 18.8702 41.3294 18.9558C43.0974 19.0355 44.057 19.3266 44.6962 19.5711C45.5424 19.895 46.1457 20.2821 46.78 20.9074C47.4147 21.5328 47.8076 22.1283 48.137 22.9621C48.3852 23.5912 48.681 24.5366 48.7615 26.2786C48.8484 28.1621 48.8673 28.7279 48.8673 33.4961C48.8673 38.2643 48.8484 38.8301 48.7615 40.7136C48.6806 42.4556 48.3852 43.401 48.137 44.0301C47.8083 44.8639 47.4147 45.4576 46.78 46.0826C46.1453 46.7079 45.5428 47.095 44.6962 47.4188C44.0577 47.6645 43.0974 47.9549 41.3294 48.0345C39.4178 48.1201 38.8436 48.1387 34.0019 48.1387C29.1599 48.1387 28.5861 48.1201 26.6745 48.0345C24.9065 47.9541 23.9469 47.663 23.3073 47.4185C22.4611 47.0946 21.8566 46.7075 21.222 46.0822C20.5873 45.4568 20.1944 44.8628 19.865 44.0286C19.6168 43.3995 19.321 42.4541 19.2405 40.7121C19.1536 38.8286 19.1362 38.2628 19.1362 33.4916C19.1362 28.7204 19.1536 28.1576 19.2405 26.2742C19.3213 24.5322 19.6168 23.5867 19.865 22.9569C20.1936 22.1231 20.5873 21.5275 21.222 20.9022C21.8566 20.2769 22.4611 19.8897 23.3073 19.5652C23.9465 19.3195 24.9065 19.0292 26.6745 18.9491C28.3473 18.8747 28.9956 18.8524 32.3752 18.8486V18.8531ZM43.6815 21.8197C42.4802 21.8197 41.5055 22.779 41.5055 23.963C41.5055 25.1467 42.4802 26.107 43.6815 26.107C44.8829 26.107 45.8576 25.1467 45.8576 23.963C45.8576 22.7793 44.8829 21.819 43.6815 21.819V21.8197ZM24.6898 33.5002C24.6898 28.4331 28.8593 24.3248 34.0021 24.3248H34.0017C39.1444 24.3248 43.3129 28.4331 43.3129 33.5002C43.3129 38.5673 39.1448 42.6737 34.0021 42.6737C28.8593 42.6737 24.6898 38.5673 24.6898 33.5002Z" fill="black"/>
<path d="M34.0017 27.5446C37.3397 27.5446 40.0462 30.2108 40.0462 33.5002C40.0462 36.7892 37.3397 39.4558 34.0017 39.4558C30.6632 39.4558 27.9572 36.7892 27.9572 33.5002C27.9572 30.2108 30.6632 27.5446 34.0017 27.5446V27.5446Z" fill="black"/>
</svg>
