<svg width="70" height="70" viewBox="0 0 70 70" fill="none" xmlns="http://www.w3.org/2000/svg">
<path d="M35 1.39996C16.443 1.39996 1.40002 16.443 1.40002 35C1.40002 53.557 16.443 68.6 35 68.6C53.557 68.6 68.6 53.557 68.6 35C68.6 16.443 53.557 1.39996 35 1.39996ZM26.775 48.9265H19.971V27.0305H26.775V48.9265ZM23.331 24.3425C21.182 24.3425 19.7925 22.82 19.7925 20.937C19.7925 19.0155 21.224 17.5385 23.4185 17.5385C25.613 17.5385 26.957 19.0155 26.999 20.937C26.999 22.82 25.613 24.3425 23.331 24.3425ZM51.625 48.9265H44.821V36.792C44.821 33.9675 43.834 32.0495 41.3735 32.0495C39.494 32.0495 38.3775 33.348 37.884 34.5975C37.702 35.042 37.6565 35.672 37.6565 36.2985V48.923H30.849V34.013C30.849 31.2795 30.7615 28.994 30.6705 27.027H36.582L36.8935 30.0685H37.03C37.926 28.6405 40.1205 26.5335 43.792 26.5335C48.2685 26.5335 51.625 29.533 51.625 35.98V48.9265Z" fill="black"/>
</svg>
