<?xml version="1.0" standalone="no"?>
<!DOCTYPE svg PUBLIC "-//W3C//DTD SVG 20010904//EN"
 "http://www.w3.org/TR/2001/REC-SVG-20010904/DTD/svg10.dtd">
<svg version="1.0" xmlns="http://www.w3.org/2000/svg"
 width="1556.000000pt" height="4096.000000pt" viewBox="0 0 1556.000000 4096.000000"
 preserveAspectRatio="xMidYMid meet">

<g transform="translate(0.000000,4096.000000) scale(0.100000,-0.100000)"
fill="#000000" stroke="none">
<path d="M7155 30220 c-514 -48 -1214 -230 -2030 -530 -1112 -408 -2007 -916
-2838 -1610 -750 -626 -1152 -1274 -1249 -2010 -19 -145 -16 -446 5 -555 47
-235 119 -402 256 -584 253 -339 814 -690 1495 -938 326 -118 1004 -310 1771
-501 259 -64 472 -118 474 -119 5 -3 4 -56 -19 -1308 -19 -1016 -43 -2432 -58
-3387 -4 -262 -11 -480 -14 -484 -13 -12 -398 -4 -535 11 -235 27 -448 83
-601 157 -64 32 -132 95 -132 125 0 40 45 105 124 177 97 88 124 126 132 189
6 43 4 49 -28 81 -46 46 -100 60 -233 60 -108 1 -112 0 -185 -37 -163 -81
-363 -249 -701 -586 -398 -398 -539 -600 -539 -768 1 -225 145 -426 395 -551
187 -93 488 -153 925 -183 264 -18 861 -15 1129 5 123 9 226 14 229 11 3 -3 0
-411 -7 -908 -6 -496 -16 -1212 -21 -1592 -34 -2499 -36 -3351 -10 -3725 54
-788 163 -1287 376 -1714 109 -218 212 -343 329 -398 l67 -31 147 6 c527 22
946 242 977 512 7 64 -13 121 -242 699 l-175 439 36 89 c79 195 112 399 101
633 -6 140 -13 220 -60 685 -119 1176 -141 2380 -85 4635 6 242 14 507 17 590
l7 149 380 32 c855 71 1473 147 2208 270 1545 258 2928 664 3932 1154 327 160
649 361 905 566 157 126 392 357 502 494 290 361 471 772 533 1210 23 162 30
420 16 565 -82 846 -616 1576 -1698 2322 -438 303 -909 579 -1443 847 -827
416 -1487 676 -2620 1032 -886 279 -1686 480 -2404 604 -93 17 -173 35 -176
41 -4 6 -10 45 -13 88 -8 105 -33 222 -61 285 l-23 53 28 84 c18 54 29 105 29
143 0 56 -2 61 -43 101 -78 79 -254 112 -532 102 -316 -12 -445 -70 -565 -257
-47 -73 -131 -244 -180 -367 -20 -53 -38 -83 -47 -83 -30 0 -230 32 -328 52
-215 44 -285 70 -742 282 -242 112 -433 166 -595 169 -98 1 -134 -13 -178 -74
-73 -102 -104 -253 -104 -519 -1 -179 1 -201 22 -262 100 -289 400 -451 997
-537 77 -11 307 -36 510 -56 471 -45 448 -41 441 -70 -23 -92 -66 -548 -66
-702 0 -46 -4 -83 -9 -83 -18 0 -739 182 -956 241 -443 121 -853 250 -1073
338 -441 176 -665 387 -754 706 -32 115 -31 387 1 560 88 474 361 888 826
1251 139 108 471 330 635 423 173 100 507 267 680 341 789 338 2056 649 2413
591 92 -16 152 -40 287 -116 148 -84 215 -105 334 -105 232 0 428 105 557 298
156 234 257 551 247 774 -4 88 -9 106 -42 172 -39 79 -99 142 -180 190 -63 37
-206 83 -316 101 -115 19 -427 27 -565 15z m-405 -5165 c1242 -229 2813 -683
3853 -1114 774 -321 1497 -722 2044 -1134 681 -514 1035 -1043 1108 -1657 19
-157 19 -249 0 -373 -62 -411 -363 -800 -890 -1151 -777 -518 -1940 -970
-3230 -1255 -401 -88 -1093 -221 -1154 -221 -8 0 26 28 75 62 442 305 866 697
1177 1086 498 622 750 1247 774 1917 28 783 -289 1383 -946 1792 -383 239
-1082 534 -1772 748 -316 98 -450 135 -909 251 -228 58 -418 108 -421 112 -3
4 4 156 17 337 13 182 26 401 30 487 7 153 8 157 28 153 12 -3 109 -21 216
-40z m127 -2120 c1174 -293 1430 -383 1792 -626 467 -312 677 -644 732 -1154
14 -132 7 -336 -16 -455 -65 -334 -245 -654 -539 -958 -460 -475 -1123 -879
-1913 -1166 -203 -73 -453 -153 -513 -162 l-40 -7 0 159 c0 258 -20 2294 -30
3014 -8 603 -7 698 11 1025 23 420 25 445 44 445 8 0 220 -52 472 -115z"/>
</g>
</svg>
