<?xml version="1.0" standalone="no"?>
<!DOCTYPE svg PUBLIC "-//W3C//DTD SVG 20010904//EN"
 "http://www.w3.org/TR/2001/REC-SVG-20010904/DTD/svg10.dtd">
<svg version="1.0" xmlns="http://www.w3.org/2000/svg"
 width="3135.000000pt" height="8251.000000pt" viewBox="0 0 3135.000000 8251.000000"
 preserveAspectRatio="xMidYMid meet">

<g transform="translate(0.000000,8251.000000) scale(0.100000,-0.100000)"
fill="#000000" stroke="none">
<path d="M14490 60879 c-1078 -80 -2536 -460 -4320 -1126 -760 -284 -1319
-525 -1990 -860 -1046 -521 -1932 -1066 -2830 -1739 -1153 -864 -1858 -1563
-2395 -2374 -577 -870 -870 -1768 -892 -2730 -8 -364 16 -597 92 -888 222
-843 788 -1470 1910 -2115 203 -116 620 -326 850 -427 712 -313 1591 -597
3095 -999 544 -145 1961 -500 2103 -526 21 -4 41 -14 44 -23 4 -8 1 -283 -6
-611 -51 -2592 -91 -4848 -136 -7656 -13 -863 -27 -1707 -31 -1874 l-6 -304
-397 6 c-726 11 -1181 79 -1641 244 -231 83 -376 161 -457 243 -122 125 -65
265 198 489 154 131 226 233 247 352 38 203 -148 309 -548 313 -118 1 -144 -2
-205 -23 -290 -98 -678 -392 -1319 -1000 -754 -714 -1220 -1297 -1306 -1635
-59 -231 30 -575 208 -812 180 -239 482 -445 825 -563 519 -179 1195 -263
2327 -291 581 -15 1118 2 1829 55 107 8 196 13 198 11 2 -2 -5 -653 -16 -1447
-42 -2894 -74 -5543 -102 -8279 -17 -1663 -5 -2339 57 -3125 110 -1398 338
-2372 744 -3170 234 -461 465 -721 719 -808 l86 -30 235 6 c129 3 287 13 350
22 479 65 942 220 1240 415 129 85 282 240 333 337 51 98 74 169 87 267 11 81
11 84 -25 197 -71 219 -224 617 -581 1511 l-234 586 36 79 c85 184 155 402
193 603 80 415 73 775 -34 1775 -281 2645 -329 5009 -200 10010 8 314 17 667
20 785 3 118 8 256 11 307 l6 91 76 6 c662 54 998 83 1347 117 4339 415 7955
1216 10785 2392 470 195 1002 447 1375 652 1535 842 2589 1885 3105 3070 260
598 390 1200 407 1880 35 1424 -570 2711 -1857 3950 -483 466 -1024 887 -1835
1430 -1843 1235 -3907 2242 -6325 3087 -2076 725 -3999 1265 -5740 1612 -310
62 -888 167 -996 181 -28 4 -56 10 -62 14 -6 3 -18 76 -26 161 -32 303 -76
502 -142 638 l-36 73 41 117 c107 311 107 443 1 552 -119 123 -360 189 -756
210 -327 17 -672 -12 -888 -75 -287 -83 -417 -189 -603 -488 -104 -169 -253
-485 -363 -770 -40 -102 -42 -106 -68 -102 -15 3 -83 12 -152 20 -409 51 -805
140 -1100 248 -98 35 -689 301 -847 380 -461 232 -958 377 -1286 377 -144 0
-199 -21 -284 -106 -165 -165 -248 -494 -269 -1069 -11 -308 20 -494 115 -690
209 -433 694 -706 1561 -879 271 -55 544 -90 1190 -156 684 -70 1040 -108
1089 -116 32 -5 33 -7 28 -42 -92 -630 -110 -814 -127 -1301 -5 -156 -11 -286
-13 -288 -2 -2 -181 40 -398 92 -2049 496 -3486 935 -4114 1255 -273 139 -462
274 -650 464 -282 284 -436 588 -490 966 -17 124 -20 451 -5 620 78 857 439
1615 1094 2297 556 578 1598 1283 2691 1819 905 444 1756 747 3045 1084 939
246 1713 380 2200 380 254 0 481 -71 741 -232 270 -168 454 -228 696 -228 402
0 754 155 1002 443 212 244 449 734 551 1137 52 203 64 299 64 505 1 168 -2
200 -22 275 -123 457 -563 706 -1356 770 -149 12 -598 11 -766 -1z m-1040
-10384 c1925 -349 4160 -933 6180 -1614 1729 -583 3311 -1308 4664 -2138 258
-158 795 -513 1011 -668 1351 -969 2136 -2022 2364 -3170 51 -257 65 -403 65
-685 1 -164 -4 -283 -12 -335 -79 -485 -252 -857 -603 -1304 -109 -137 -448
-477 -614 -615 -533 -442 -1202 -850 -2128 -1297 -1699 -820 -3771 -1462
-6232 -1929 -276 -52 -1087 -191 -1092 -187 -1 2 69 52 155 112 1540 1066
2774 2439 3401 3783 288 618 459 1218 538 1897 22 193 25 873 5 1060 -89 793
-342 1429 -801 2004 -117 148 -450 476 -611 605 -234 186 -516 368 -835 540
-726 392 -1631 771 -2695 1127 -937 313 -1812 559 -3105 871 l-100 24 3 60 c2
32 25 394 53 804 30 464 49 815 49 932 0 172 1 186 18 182 9 -2 154 -29 322
-59z m20 -4195 c1243 -303 2316 -590 2697 -721 576 -198 1079 -461 1528 -799
750 -565 1112 -1168 1232 -2050 26 -194 26 -733 0 -900 -148 -943 -679 -1761
-1697 -2610 -1065 -888 -2553 -1632 -4204 -2104 -88 -25 -162 -43 -165 -40 -3
3 -9 472 -13 1042 -10 1554 -39 4584 -58 5987 l-11 760 36 615 c19 338 39 685
45 770 5 85 10 165 10 177 0 14 5 21 13 18 6 -2 271 -68 587 -145z"/>
</g>
</svg>
