<svg width="20" height="19" viewBox="0 0 20 19" fill="none" xmlns="http://www.w3.org/2000/svg">
<path d="M14.935 3.073C15.2802 4.34302 15.3619 5.67024 15.175 6.973V7.02C15.164 7.166 15.157 7.298 15.151 7.43C15.2499 7.4826 15.3611 7.50748 15.473 7.502C15.7629 7.47562 16.045 7.3938 16.304 7.261C16.4199 7.20368 16.5478 7.17488 16.677 7.177C16.8167 7.17482 16.9555 7.19925 17.086 7.249C17.4074 7.323 17.6452 7.59465 17.676 7.923C17.6893 8.28434 17.3643 8.59734 16.701 8.862C16.63 8.885 16.532 8.923 16.425 8.962C16.062 9.071 15.508 9.251 15.352 9.613C15.2802 9.84964 15.3168 10.1059 15.452 10.313L15.464 10.326C16.1761 11.9435 17.6008 13.1371 19.318 13.555C19.5175 13.5867 19.6621 13.7621 19.655 13.964C19.654 14.026 19.6418 14.0873 19.619 14.145C19.426 14.602 18.596 14.945 17.089 15.166C17.0287 15.3138 16.9844 15.4677 16.957 15.625C16.932 15.7754 16.8962 15.9237 16.85 16.069C16.803 16.2733 16.6128 16.4118 16.404 16.394H16.38C16.2342 16.3873 16.0893 16.3675 15.947 16.335C15.6105 16.2624 15.2672 16.2262 14.923 16.227C14.6777 16.2236 14.4325 16.2437 14.191 16.287C13.6829 16.4201 13.2099 16.6624 12.805 16.997C12.0596 17.6238 11.1271 17.9851 10.154 18.024C10.106 18.024 10.054 18.012 10.008 18.012H9.88701C8.91727 17.9752 7.98884 17.6098 7.25401 16.976C6.85388 16.6414 6.38519 16.3987 5.88101 16.265C5.63432 16.2282 5.38541 16.2081 5.13601 16.205C4.79181 16.2101 4.44903 16.2503 4.11301 16.325C3.97025 16.3587 3.82457 16.3784 3.67801 16.384C3.46045 16.4001 3.26255 16.2582 3.20801 16.047C3.16001 15.893 3.13701 15.734 3.10101 15.591C3.0729 15.4341 3.02832 15.2806 2.96801 15.133C1.42501 14.954 0.595007 14.616 0.403007 14.147C0.374758 14.0905 0.358097 14.029 0.354007 13.966C0.34696 13.7641 0.491519 13.5887 0.691007 13.557C2.40902 13.1389 3.83399 11.9439 4.54501 10.325L4.55401 10.3C4.69425 10.0949 4.7312 9.8362 4.65401 9.6C4.49801 9.251 3.94301 9.071 3.58401 8.95C3.48836 8.92458 3.39503 8.89113 3.30501 8.85C2.41501 8.5 2.29401 8.102 2.34301 7.826C2.48483 7.43352 2.86619 7.17956 3.28301 7.2C3.38863 7.19947 3.49331 7.21987 3.59101 7.26C3.86687 7.40161 4.1694 7.48371 4.47901 7.501C4.60966 7.50489 4.73903 7.47418 4.85401 7.412L4.81301 6.954C4.62688 5.65482 4.7089 4.33127 5.05401 3.065C5.86552 1.18296 7.73275 -0.0231578 9.78201 0.0110035L10.117 3.51679e-06H10.166C12.2281 -0.0246455 14.1054 1.18504 14.935 3.073Z" fill="#2E3A59"/>
</svg>
